<?xml version="1.0" encoding="iso-8859-1"?>
<!-- Generator: Adobe Illustrator 19.0.0, SVG Export Plug-In . SVG Version: 6.00 Build 0)  -->
<svg version="1.1" id="Layer_1" xmlns="http://www.w3.org/2000/svg" xmlns:xlink="http://www.w3.org/1999/xlink" x="0px" y="0px"
	 viewBox="0 0 502 502" style="enable-background:new 0 0 502 502;" xml:space="preserve">
<g>
	<path style="fill:#F77E65;" d="M49,355.816v-80h1h442v-37H55.667C30.446,238.816,10,259.262,10,284.483v62.667
		c0,25.221,20.446,45.667,45.667,45.667H492v-37H50h-1V355.816z"/>
	<rect x="49.333" y="275.816" style="fill:#F0EFE4;" width="408.667" height="80"/>
	<g>
		<path style="fill:#F77E65;" d="M422.911,207.67v-67.343h-0.842H50v-31.146h367.299c21.231,0,38.442,17.211,38.442,38.442v52.752
			c0,21.231-17.211,38.442-38.442,38.442H50v-31.146h372.069h0.842V207.67z"/>
		<rect x="78.621" y="140.328" style="fill:#F0EFE4;" width="344.009" height="67.343"/>
		<g>
			<path d="M492,285.816c5.523,0,10-4.477,10-10v-37c0-5.523-4.477-10-10-10h-35.523c5.819-7.993,9.264-17.82,9.264-28.441v-52.752
				c0-26.711-21.731-48.441-48.441-48.441H50c-5.523,0-10,4.477-10,10v31.146c0,5.523,4.477,10,10,10h18.621v47.343H50
				c-5.523,0-10,4.477-10,10v23.406c-23.089,6.785-40,28.152-40,53.407v62.667c0,30.695,24.972,55.667,55.667,55.667H492
				c5.523,0,10-4.477,10-10v-37c0-5.523-4.477-10-10-10h-24v-60h24V285.816z M88.621,183.999h239.168c5.523,0,10-4.477,10-10
				s-4.477-10-10-10H88.621v-13.671H412.63v47.343H88.621V183.999z M60,217.67h18.621H422.63h0.281c5.523,0,10-4.477,10-10v-67.343
				c0-5.523-4.477-10-10-10h-0.281H78.621H60v-11.146h357.299c15.683,0,28.441,12.759,28.441,28.441v52.752
				c0,15.683-12.759,28.441-28.441,28.441H60V217.67z M482,382.816H55.667C36,382.816,20,366.816,20,347.15v-62.667
				c0-19.667,16-35.667,35.667-35.667h361.632H482v17h-24H49.333H49c-5.523,0-10,4.477-10,10v80c0,5.523,4.477,10,10,10h0.333H458
				h24V382.816z M448,292.816H162c-5.523,0-10,4.477-10,10s4.477,10,10,10h286v7H95c-5.523,0-10,4.477-10,10s4.477,10,10,10h353v6
				H59.333v-60H448V292.816z"/>
			<path d="M95,312.816h22c5.523,0,10-4.477,10-10s-4.477-10-10-10H95c-5.523,0-10,4.477-10,10S89.477,312.816,95,312.816z"/>
			<path d="M384.188,163.999h-18.52c-5.523,0-10,4.477-10,10s4.477,10,10,10h18.52c5.523,0,10-4.477,10-10
				S389.711,163.999,384.188,163.999z"/>
		</g>
	</g>
</g>
<g>
</g>
<g>
</g>
<g>
</g>
<g>
</g>
<g>
</g>
<g>
</g>
<g>
</g>
<g>
</g>
<g>
</g>
<g>
</g>
<g>
</g>
<g>
</g>
<g>
</g>
<g>
</g>
<g>
</g>
</svg>
